<mxfile host="Electron" modified="2024-02-27T13:27:28.302Z" agent="Mozilla/5.0 (Windows NT 10.0; Win64; x64) AppleWebKit/537.36 (KHTML, like Gecko) draw.io/23.1.5 Chrome/120.0.6099.109 Electron/28.1.0 Safari/537.36" etag="lNQOLcKKHKDjACkqVmae" version="23.1.5" type="device">
  <diagram name="Страница — 1" id="FLC4SIvFwk310nvkZMXt">
    <mxGraphModel dx="794" dy="511" grid="1" gridSize="10" guides="1" tooltips="1" connect="1" arrows="1" fold="1" page="1" pageScale="1" pageWidth="827" pageHeight="1169" math="0" shadow="0">
      <root>
        <mxCell id="0" />
        <mxCell id="1" parent="0" />
        <mxCell id="bOCRrcDRKbWP7YTqtMAx-3" style="edgeStyle=orthogonalEdgeStyle;rounded=0;orthogonalLoop=1;jettySize=auto;html=1;exitX=0.5;exitY=0.5;exitDx=0;exitDy=20;exitPerimeter=0;curved=0;strokeColor=default;endArrow=none;endFill=0;" parent="1" source="tIk8xWOpjXj7sifwUdpu-1" edge="1">
          <mxGeometry relative="1" as="geometry">
            <mxPoint x="100.14285714285722" y="120" as="targetPoint" />
          </mxGeometry>
        </mxCell>
        <mxCell id="tIk8xWOpjXj7sifwUdpu-1" value="recursion_1(n)" style="html=1;dashed=0;whiteSpace=wrap;shape=mxgraph.dfd.start;fontFamily=Times New Roman;fontSize=14;" parent="1" vertex="1">
          <mxGeometry x="40" y="40" width="120" height="40" as="geometry" />
        </mxCell>
        <mxCell id="bOCRrcDRKbWP7YTqtMAx-5" style="edgeStyle=orthogonalEdgeStyle;rounded=0;orthogonalLoop=1;jettySize=auto;html=1;exitX=0.5;exitY=1;exitDx=0;exitDy=0;endArrow=none;endFill=0;" parent="1" source="bOCRrcDRKbWP7YTqtMAx-4" edge="1">
          <mxGeometry relative="1" as="geometry">
            <mxPoint x="100.14285714285722" y="240" as="targetPoint" />
          </mxGeometry>
        </mxCell>
        <mxCell id="bOCRrcDRKbWP7YTqtMAx-4" value="Увеличение на 1 счётчика кол-ва вызовов функции" style="rounded=0;whiteSpace=wrap;html=1;" parent="1" vertex="1">
          <mxGeometry x="40" y="120" width="120" height="80" as="geometry" />
        </mxCell>
        <mxCell id="bOCRrcDRKbWP7YTqtMAx-7" style="edgeStyle=orthogonalEdgeStyle;rounded=0;orthogonalLoop=1;jettySize=auto;html=1;exitX=1;exitY=0.5;exitDx=0;exitDy=0;endArrow=none;endFill=0;entryX=0;entryY=0.5;entryDx=0;entryDy=0;entryPerimeter=0;" parent="1" source="bOCRrcDRKbWP7YTqtMAx-6" target="bOCRrcDRKbWP7YTqtMAx-8" edge="1">
          <mxGeometry relative="1" as="geometry">
            <mxPoint x="230" y="230" as="targetPoint" />
          </mxGeometry>
        </mxCell>
        <mxCell id="bOCRrcDRKbWP7YTqtMAx-18" value="Да" style="edgeLabel;html=1;align=center;verticalAlign=middle;resizable=0;points=[];" parent="bOCRrcDRKbWP7YTqtMAx-7" vertex="1" connectable="0">
          <mxGeometry x="0.0212" y="-1" relative="1" as="geometry">
            <mxPoint y="-11" as="offset" />
          </mxGeometry>
        </mxCell>
        <mxCell id="bOCRrcDRKbWP7YTqtMAx-10" style="edgeStyle=orthogonalEdgeStyle;rounded=0;orthogonalLoop=1;jettySize=auto;html=1;exitX=0.5;exitY=1;exitDx=0;exitDy=0;entryX=0.5;entryY=0;entryDx=0;entryDy=0;endArrow=none;endFill=0;" parent="1" source="bOCRrcDRKbWP7YTqtMAx-6" target="bOCRrcDRKbWP7YTqtMAx-9" edge="1">
          <mxGeometry relative="1" as="geometry" />
        </mxCell>
        <mxCell id="bOCRrcDRKbWP7YTqtMAx-19" value="Нет" style="edgeLabel;html=1;align=center;verticalAlign=middle;resizable=0;points=[];" parent="bOCRrcDRKbWP7YTqtMAx-10" vertex="1" connectable="0">
          <mxGeometry x="0.1136" relative="1" as="geometry">
            <mxPoint x="20" y="-2" as="offset" />
          </mxGeometry>
        </mxCell>
        <mxCell id="bOCRrcDRKbWP7YTqtMAx-6" value="Если n = 1" style="rhombus;whiteSpace=wrap;html=1;" parent="1" vertex="1">
          <mxGeometry x="40" y="240" width="120" height="80" as="geometry" />
        </mxCell>
        <mxCell id="bOCRrcDRKbWP7YTqtMAx-8" value="Вернуть 1" style="html=1;dashed=0;whiteSpace=wrap;shape=mxgraph.dfd.start;fontFamily=Times New Roman;fontSize=14;" parent="1" vertex="1">
          <mxGeometry x="200" y="260" width="120" height="40" as="geometry" />
        </mxCell>
        <mxCell id="bOCRrcDRKbWP7YTqtMAx-13" style="edgeStyle=orthogonalEdgeStyle;rounded=0;orthogonalLoop=1;jettySize=auto;html=1;exitX=0.5;exitY=1;exitDx=0;exitDy=0;endArrow=none;endFill=0;" parent="1" source="bOCRrcDRKbWP7YTqtMAx-9" edge="1">
          <mxGeometry relative="1" as="geometry">
            <mxPoint x="99.81818181818176" y="479.9999999999999" as="targetPoint" />
          </mxGeometry>
        </mxCell>
        <mxCell id="bOCRrcDRKbWP7YTqtMAx-23" value="Нет" style="edgeLabel;html=1;align=center;verticalAlign=middle;resizable=0;points=[];" parent="bOCRrcDRKbWP7YTqtMAx-13" vertex="1" connectable="0">
          <mxGeometry x="-0.0295" y="-1" relative="1" as="geometry">
            <mxPoint x="21" as="offset" />
          </mxGeometry>
        </mxCell>
        <mxCell id="UYjnylTN-B2RKUVimdeT-2" style="edgeStyle=orthogonalEdgeStyle;rounded=0;orthogonalLoop=1;jettySize=auto;html=1;exitX=1;exitY=0.5;exitDx=0;exitDy=0;entryX=0;entryY=0.5;entryDx=0;entryDy=0;endArrow=none;endFill=0;" edge="1" parent="1" source="bOCRrcDRKbWP7YTqtMAx-9" target="UYjnylTN-B2RKUVimdeT-1">
          <mxGeometry relative="1" as="geometry" />
        </mxCell>
        <mxCell id="UYjnylTN-B2RKUVimdeT-5" value="Да" style="edgeLabel;html=1;align=center;verticalAlign=middle;resizable=0;points=[];" vertex="1" connectable="0" parent="UYjnylTN-B2RKUVimdeT-2">
          <mxGeometry x="-0.1167" y="4" relative="1" as="geometry">
            <mxPoint y="-6" as="offset" />
          </mxGeometry>
        </mxCell>
        <mxCell id="bOCRrcDRKbWP7YTqtMAx-9" value="Если n четное" style="rhombus;whiteSpace=wrap;html=1;" parent="1" vertex="1">
          <mxGeometry x="40" y="360" width="120" height="80" as="geometry" />
        </mxCell>
        <mxCell id="UYjnylTN-B2RKUVimdeT-14" style="edgeStyle=orthogonalEdgeStyle;rounded=0;orthogonalLoop=1;jettySize=auto;html=1;exitX=1;exitY=0.5;exitDx=0;exitDy=0;exitPerimeter=0;endArrow=none;endFill=0;" edge="1" parent="1" source="bOCRrcDRKbWP7YTqtMAx-14">
          <mxGeometry relative="1" as="geometry">
            <mxPoint x="360" y="620" as="targetPoint" />
          </mxGeometry>
        </mxCell>
        <mxCell id="bOCRrcDRKbWP7YTqtMAx-14" value="Конец" style="html=1;dashed=0;whiteSpace=wrap;shape=mxgraph.dfd.start;fontFamily=Times New Roman;fontSize=14;" parent="1" vertex="1">
          <mxGeometry x="40" y="600" width="120" height="40" as="geometry" />
        </mxCell>
        <mxCell id="bOCRrcDRKbWP7YTqtMAx-16" value="Если n &amp;gt; 1 и нечетное" style="rhombus;whiteSpace=wrap;html=1;fontSize=12;" parent="1" vertex="1">
          <mxGeometry x="40" y="480" width="120" height="80" as="geometry" />
        </mxCell>
        <mxCell id="UYjnylTN-B2RKUVimdeT-12" style="edgeStyle=orthogonalEdgeStyle;rounded=0;orthogonalLoop=1;jettySize=auto;html=1;endArrow=none;endFill=0;" edge="1" parent="1" source="UYjnylTN-B2RKUVimdeT-1">
          <mxGeometry relative="1" as="geometry">
            <mxPoint x="360" y="620" as="targetPoint" />
          </mxGeometry>
        </mxCell>
        <mxCell id="UYjnylTN-B2RKUVimdeT-1" value="&lt;span style=&quot;background-color: rgb(255, 255, 255);&quot;&gt;&lt;font style=&quot;font-size: 12px;&quot;&gt;n+3*recursion_1(n-1)&lt;/font&gt;&lt;/span&gt;" style="shape=process;whiteSpace=wrap;html=1;backgroundOutline=1;fontSize=12;" vertex="1" parent="1">
          <mxGeometry x="200" y="360" width="120" height="80" as="geometry" />
        </mxCell>
        <mxCell id="UYjnylTN-B2RKUVimdeT-6" style="edgeStyle=orthogonalEdgeStyle;rounded=0;orthogonalLoop=1;jettySize=auto;html=1;exitX=1;exitY=0.5;exitDx=0;exitDy=0;entryX=0;entryY=0.5;entryDx=0;entryDy=0;endArrow=none;endFill=0;" edge="1" parent="1" target="UYjnylTN-B2RKUVimdeT-8">
          <mxGeometry relative="1" as="geometry">
            <mxPoint x="160" y="520" as="sourcePoint" />
          </mxGeometry>
        </mxCell>
        <mxCell id="UYjnylTN-B2RKUVimdeT-7" value="Да" style="edgeLabel;html=1;align=center;verticalAlign=middle;resizable=0;points=[];" vertex="1" connectable="0" parent="UYjnylTN-B2RKUVimdeT-6">
          <mxGeometry x="-0.1167" y="4" relative="1" as="geometry">
            <mxPoint y="-6" as="offset" />
          </mxGeometry>
        </mxCell>
        <mxCell id="UYjnylTN-B2RKUVimdeT-13" style="edgeStyle=orthogonalEdgeStyle;rounded=0;orthogonalLoop=1;jettySize=auto;html=1;exitX=1;exitY=0.5;exitDx=0;exitDy=0;endArrow=none;endFill=0;" edge="1" parent="1" source="UYjnylTN-B2RKUVimdeT-8">
          <mxGeometry relative="1" as="geometry">
            <mxPoint x="360" y="520" as="targetPoint" />
          </mxGeometry>
        </mxCell>
        <mxCell id="UYjnylTN-B2RKUVimdeT-8" value="&lt;span style=&quot;background-color: rgb(255, 255, 255);&quot;&gt;2+2*recursion_1(n-1)&lt;/span&gt;" style="shape=process;whiteSpace=wrap;html=1;backgroundOutline=1;fontSize=12;labelBackgroundColor=none;" vertex="1" parent="1">
          <mxGeometry x="200" y="480" width="120" height="80" as="geometry" />
        </mxCell>
      </root>
    </mxGraphModel>
  </diagram>
</mxfile>
